# This file uses centimeters as units for non-parametric coordinates.

mtllib Jays_paddle_kek.mtl
g default
v -1.026586 0.142873 0.121110
v -1.024354 0.173795 0.152032
v 1.024354 0.173795 0.152032
v 1.026586 0.142873 0.121110
v -1.024354 1.494804 0.152032
v -1.026586 1.525726 0.121110
v 1.026586 1.525726 0.121110
v 1.024354 1.494804 0.152032
v -1.026586 1.525726 -0.121110
v -1.024354 1.494804 -0.152032
v 1.024354 1.494804 -0.152032
v 1.026587 1.525726 -0.121110
v -1.024354 0.173795 -0.152032
v -1.026586 0.142873 -0.121110
v 1.026586 0.142873 -0.121110
v 1.024354 0.173795 -0.152032
v 1.093016 0.152517 -0.121110
v 1.079087 0.181967 -0.152032
v 1.079087 0.181967 0.152032
v 1.093016 0.152517 0.121110
v 1.079087 1.487083 -0.152032
v 1.093016 1.516082 -0.121110
v 1.093016 1.516082 0.121110
v 1.079087 1.487083 0.152032
v 1.149617 0.195692 -0.121110
v 1.118695 0.210996 -0.152032
v 1.118695 0.210996 0.152032
v 1.149617 0.195692 0.121110
v 1.118695 1.441490 -0.152032
v 1.149617 1.453383 -0.121110
v 1.149617 1.453383 0.121110
v 1.118695 1.441490 0.152032
v -1.093016 0.152517 0.121110
v -1.079720 0.182151 0.152032
v -1.079720 0.182151 -0.152032
v -1.093016 0.152517 -0.121110
v -1.079720 1.487083 0.152032
v -1.093016 1.516082 0.121110
v -1.093016 1.516082 -0.121110
v -1.079720 1.487083 -0.152032
v -1.149617 0.189064 0.121110
v -1.118695 0.205906 0.152032
v -1.118695 0.205906 -0.152032
v -1.149617 0.189064 -0.121110
v -1.118695 1.441490 0.152032
v -1.149617 1.453383 0.121110
v -1.149617 1.453383 -0.121110
v -1.118695 1.441490 -0.152032
vt 0.138624 0.222459
vt 0.140179 0.237821
vt 0.120703 0.241817
vt 0.113549 0.227388
vt 0.863242 0.222160
vt 0.861898 0.237546
vt 0.888513 0.226934
vt 0.882119 0.241046
vt 0.140592 0.702670
vt 0.139197 0.718056
vt 0.113844 0.713082
vt 0.122115 0.698057
vt 0.861261 0.703033
vt 0.862580 0.718425
vt 0.879906 0.699802
vt 0.887532 0.713525
vt 0.134085 0.802410
vt 0.861261 0.703033
vt 0.879905 0.699802
vt 0.018333 0.730709
vt 0.868537 0.801827
vt 0.140592 0.702670
vt 0.892881 0.799454
vt 0.122115 0.698057
vt 0.861898 0.237546
vt 0.133996 0.137546
vt 0.109617 0.139976
vt 0.882119 0.241046
vt 0.140179 0.237821
vt 0.868142 0.136657
vt 0.120703 0.241817
vt 0.983547 0.205793
vt 0.106888 0.251860
vt 0.993578 0.231341
vt 0.910337 0.242493
vt 0.895014 0.249571
vt 0.990744 0.700276
vt 0.107417 0.683652
vt 0.894385 0.683821
vt 0.909636 0.689367
vt 0.106888 0.251860
vt 0.091662 0.245017
vt 0.013621 0.228815
vt 0.895013 0.249571
vt 0.092085 0.688934
vt 0.107417 0.683652
vt 0.894385 0.683821
vt 0.007438 0.699906
vt 0.887532 0.713525
vt 0.109984 0.799907
vt 0.888513 0.226934
vt 0.023129 0.205872
vt 0.113844 0.713082
vt 0.980191 0.729747
vt 0.113549 0.227388
vt 0.892259 0.139140
vt 0.910336 0.242493
vt 0.909636 0.689367
vt 0.092085 0.688934
vt 0.091662 0.245017
vt 0.138624 0.222459
vt 0.863242 0.222160
vt 0.139197 0.718056
vt 0.862580 0.718425
vn -0.004491 -0.994034 0.108975
vn -0.000101 -0.023739 0.999718
vn -0.011202 -0.031739 0.999434
vn -0.349343 -0.932227 0.094403
vn 0.004487 -0.994036 0.108956
vn 0.000100 -0.023741 0.999718
vn 0.392180 -0.915130 0.093442
vn 0.013521 -0.033151 0.999359
vn -0.000097 0.023732 0.999718
vn -0.004475 0.994038 0.108940
vn -0.503401 0.859344 0.090082
vn -0.021696 0.036693 0.999091
vn 0.000097 0.023736 0.999718
vn 0.004475 0.994039 0.108930
vn 0.021599 0.036774 0.999090
vn 0.503644 0.859167 0.090419
vn -0.004475 0.994038 -0.108940
vn -0.000097 0.023732 -0.999718
vn -0.021696 0.036693 -0.999091
vn -0.503401 0.859344 -0.090082
vn 0.004475 0.994039 -0.108931
vn 0.000097 0.023736 -0.999718
vn 0.503644 0.859167 -0.090420
vn 0.021600 0.036774 -0.999090
vn -0.000101 -0.023739 -0.999718
vn -0.004491 -0.994034 -0.108975
vn -0.349344 -0.932227 -0.094403
vn -0.011202 -0.031739 -0.999434
vn 0.000100 -0.023741 -0.999718
vn 0.004487 -0.994036 -0.108956
vn 0.013521 -0.033151 -0.999359
vn 0.392180 -0.915130 -0.093442
vn 0.373348 -0.014125 -0.927584
vn 0.994921 -0.042759 -0.091122
vn 0.994921 -0.042759 0.091122
vn 0.373348 -0.014125 0.927584
vn 0.994572 0.042088 -0.095162
vn 0.351149 0.012920 -0.936230
vn 0.351150 0.012920 0.936230
vn 0.994572 0.042088 0.095163
vn -0.386230 -0.014551 0.922288
vn -0.995095 -0.042757 0.089211
vn -0.995095 -0.042757 -0.089211
vn -0.386230 -0.014551 -0.922288
vn -0.994591 0.041858 0.095060
vn -0.354146 0.012848 0.935102
vn -0.354146 0.012847 -0.935102
vn -0.994591 0.041858 -0.095060
s 1
g polySurface1
usemtl initialShadingGroup
f 1/1/1 2/2/2 34/3/3 33/4/4
f 2/2/2 1/1/1 4/5/5 3/6/6
f 3/6/6 4/5/5 20/7/7 19/8/8
f 5/9/9 6/10/10 38/11/11 37/12/12
f 6/10/10 5/9/9 8/13/13 7/14/14
f 7/14/14 8/13/13 24/15/15 23/16/16
f 9/64/17 10/18/18 40/19/19 39/49/20
f 10/18/18 9/64/17 12/63/21 11/22/22
f 11/22/22 12/63/21 22/53/23 21/24/24
f 13/25/25 14/62/26 36/51/27 35/28/28
f 14/62/26 13/25/25 16/29/29 15/61/30
f 15/61/30 16/29/29 18/31/31 17/55/32
f 17/55/32 18/31/31 26/33/33 25/60/34
f 19/8/8 20/7/7 28/35/35 27/36/36
f 21/24/24 22/53/23 30/59/37 29/38/38
f 23/16/16 24/15/15 32/39/39 31/40/40
f 25/60/34 26/33/33 29/38/38 30/59/37
f 27/36/36 28/35/35 31/40/40 32/39/39
f 33/4/4 34/3/3 42/41/41 41/42/42
f 35/28/28 36/51/27 44/57/43 43/44/44
f 37/12/12 38/11/11 46/45/45 45/46/46
f 39/49/20 40/19/19 48/47/47 47/58/48
f 41/42/42 42/41/41 45/46/46 46/45/45
f 43/44/44 44/57/43 47/58/48 48/47/47
f 2/2/2 3/6/6 8/13/13 5/9/9
f 6/10/10 7/14/14 12/21/21 9/17/17
f 10/18/18 11/22/22 16/29/29 13/25/25
f 14/26/26 15/30/30 4/5/5 1/1/1
f 28/35/35 25/34/34 30/37/37 31/40/40
f 4/5/5 15/30/30 17/56/32 20/7/7
f 16/29/29 11/22/22 21/24/24 18/31/31
f 12/21/21 7/14/14 23/16/16 22/23/23
f 8/13/13 3/6/6 19/8/8 24/15/15
f 20/7/7 17/32/32 25/34/34 28/35/35
f 18/31/31 21/24/24 29/38/38 26/33/33
f 22/54/23 23/16/16 31/40/40 30/37/37
f 24/15/15 19/8/8 27/36/36 32/39/39
f 44/43/43 41/42/42 46/45/45 47/48/48
f 14/26/26 1/1/1 33/4/4 36/27/27
f 2/2/2 5/9/9 37/12/12 34/3/3
f 6/10/10 9/17/17 39/50/20 38/11/11
f 10/18/18 13/25/25 35/28/28 40/19/19
f 36/52/27 33/4/4 41/42/42 44/43/43
f 34/3/3 37/12/12 45/46/46 42/41/41
f 38/11/11 39/20/20 47/48/48 46/45/45
f 40/19/19 35/28/28 43/44/44 48/47/47
