# Blender v2.78 (sub 0) OBJ File: 'border_line.blend'
# www.blender.org
mtllib border_line.mtl
o Cube
v 4.039200 2.376000 0.059400
v 4.039200 2.376000 -0.059400
v 4.158000 2.494800 0.059400
v 4.158000 2.494800 -0.059400
v -4.039200 2.376000 0.059400
v -4.039200 2.376000 -0.059400
v -4.158000 2.494800 0.059400
v -4.158000 2.494800 -0.059400
v 4.039200 -2.376000 0.059400
v 4.039200 -2.376000 -0.059400
v 4.158000 -2.494800 0.059400
v 4.158000 -2.494800 -0.059400
v -4.039200 -2.376000 0.059400
v -4.039200 -2.376000 -0.059400
v -4.158000 -2.494800 0.059400
v -4.158000 -2.494800 -0.059400
vn -0.0000 0.0000 -1.0000
vn 1.0000 0.0000 0.0000
vn -0.0000 0.0000 1.0000
vn 0.0000 1.0000 0.0000
vn -1.0000 0.0000 0.0000
vn 0.0000 -1.0000 0.0000
usemtl Material
s off
f 2//1 4//1 12//1 10//1
f 4//2 3//2 11//2 12//2
f 16//1 14//1 10//1 12//1
f 9//3 11//3 3//3 1//3
f 4//4 8//4 7//4 3//4
f 9//5 1//5 2//5 10//5
f 2//1 6//1 8//1 4//1
f 7//3 15//3 13//3 5//3
f 14//2 6//2 5//2 13//2
f 16//6 12//6 11//6 15//6
f 8//5 16//5 15//5 7//5
f 1//6 5//6 6//6 2//6
f 14//1 16//1 8//1 6//1
f 14//4 13//4 9//4 10//4
f 3//3 7//3 5//3 1//3
f 11//3 9//3 13//3 15//3
